<svg xmlns="http://www.w3.org/2000/svg" viewBox="0 0 260 140" role="img" aria-labelledby="title"><title id="title">US State Map</title>
  <g class="states">
    <path data-abbr="AK" d="M1 121h18v18h-18z" />
    <path data-abbr="AL" d="M121 81h18v18h-18z" />
    <path data-abbr="AR" d="M81 61h18v18h-18z" />
    <path data-abbr="AZ" d="M21 61h18v18h-18z" />
    <path data-abbr="CA" d="M1 41h18v18h-18z" />
    <path data-abbr="CO" d="M41 41h18v18h-18z" />
    <path data-abbr="CT" d="M201 21h18v18h-18z" />
    <path data-abbr="DE" d="M181 41h18v18h-18z" />
    <path data-abbr="FL" d="M161 101h18v18h-18z" />
    <path data-abbr="GA" d="M141 81h18v18h-18z" />
    <path data-abbr="HI" d="M21 121h18v18h-18z" />
    <path data-abbr="IA" d="M81 21h18v18h-18z" />
    <path data-abbr="ID" d="M21 21h18v18h-18z" />
    <path data-abbr="IL" d="M101 21h18v18h-18z" />
    <path data-abbr="IN" d="M121 21h18v18h-18z" />
    <path data-abbr="KS" d="M61 61h18v18h-18z" />
    <path data-abbr="KY" d="M101 41h18v18h-18z" />
    <path data-abbr="LA" d="M81 81h18v18h-18z" />
    <path data-abbr="MA" d="M241 21h18v18h-18z" />
    <path data-abbr="MD" d="M161 41h18v18h-18z" />
    <path data-abbr="ME" d="M221 1h18v18h-18z" />
    <path data-abbr="MI" d="M121 1h18v18h-18z" />
    <path data-abbr="MN" d="M81 1h18v18h-18z" />
    <path data-abbr="MO" d="M81 41h18v18h-18z" />
    <path data-abbr="MS" d="M101 81h18v18h-18z" />
    <path data-abbr="MT" d="M41 1h18v18h-18z" />
    <path data-abbr="NC" d="M121 61h18v18h-18z" />
    <path data-abbr="ND" d="M61 1h18v18h-18z" />
    <path data-abbr="NE" d="M61 41h18v18h-18z" />
    <path data-abbr="NH" d="M201 1h18v18h-18z" />
    <path data-abbr="NJ" d="M181 21h18v18h-18z" />
    <path data-abbr="NM" d="M41 81h18v18h-18z" />
    <path data-abbr="NV" d="M21 41h18v18h-18z" />
    <path data-abbr="NY" d="M161 1h18v18h-18z" />
    <path data-abbr="OH" d="M141 21h18v18h-18z" />
    <path data-abbr="OK" d="M61 81h18v18h-18z" />
    <path data-abbr="OR" d="M1 21h18v18h-18z" />
    <path data-abbr="PA" d="M161 21h18v18h-18z" />
    <path data-abbr="RI" d="M221 21h18v18h-18z" />
    <path data-abbr="SC" d="M141 61h18v18h-18z" />
    <path data-abbr="SD" d="M61 21h18v18h-18z" />
    <path data-abbr="TN" d="M101 61h18v18h-18z" />
    <path data-abbr="TX" d="M61 101h18v18h-18z" />
    <path data-abbr="UT" d="M41 61h18v18h-18z" />
    <path data-abbr="VA" d="M141 41h18v18h-18z" />
    <path data-abbr="VT" d="M181 1h18v18h-18z" />
    <path data-abbr="WA" d="M1 1h18v18h-18z" />
    <path data-abbr="WI" d="M101 1h18v18h-18z" />
    <path data-abbr="WV" d="M121 41h18v18h-18z" />
    <path data-abbr="WY" d="M41 21h18v18h-18z" />
  </g></svg>